<svg id="Logo1" xmlns="http://www.w3.org/2000/svg" xmlns:xlink="http://www.w3.org/1999/xlink" viewBox="0 0 1077.56 1077.56"><defs><style>.cls-1{fill:url(#Degradado_sin_nombre_8);}.cls-2{fill:url(#Degradado_sin_nombre_10);}.cls-3{fill:#fff;}</style><linearGradient id="Degradado_sin_nombre_8" x1="277.54" y1="991.24" x2="800" y2="86.3" gradientUnits="userSpaceOnUse"><stop offset="0" stop-color="#db7700"/><stop offset="1" stop-color="#d80000"/></linearGradient><linearGradient id="Degradado_sin_nombre_10" x1="626.14" y1="253.46" x2="688.43" y2="145.56" gradientUnits="userSpaceOnUse"><stop offset="0" stop-color="#fff"/><stop offset="0.11" stop-color="#fefafa"/><stop offset="0.23" stop-color="#fcecec"/><stop offset="0.36" stop-color="#f9d5d5"/><stop offset="0.5" stop-color="#f4b5b5"/><stop offset="0.64" stop-color="#ed8c8c"/><stop offset="0.79" stop-color="#e65959"/><stop offset="0.93" stop-color="#dd1e1e"/><stop offset="1" stop-color="#d80000"/></linearGradient></defs><path class="cls-1" d="M1061.16,538.78q0,26.38-2.56,52.1-2,20.39-5.58,40.23c-1.49,8.5-3.24,16.92-5.13,25.24q-4.46,19.44-10.4,38.29c-2,6.52-4.18,13-6.48,19.39a512,512,0,0,1-40.45,87.11c-1.8,3.1-3.64,6.21-5.48,9.27-91.75,150.37-257.28,250.75-446.3,250.75A521.62,521.62,0,0,1,149.13,886.67q-16.06-17.88-30.37-37.3a512,512,0,0,1-36.26-56.1c-1.08-1.89-2.12-3.78-3.15-5.67-3-5.45-5.85-11-8.55-16.56-2.57-5.09-5-10.17-7.38-15.34v-.05c-1.67-3.6-3.24-7.2-4.82-10.84-.45-1-.85-2-1.3-3-2-4.77-4-9.63-5.85-14.49l-2.16-5.66c-1.39-3.78-2.79-7.65-4.09-11.48A520.54,520.54,0,0,1,16.4,538.78C16.4,250.28,250.28,16.4,538.78,16.4c269.06,0,490.61,203.42,519.23,464.83.86,7.47,1.49,15,1.94,22.54.76,10.94,1.16,21.92,1.16,33C1061.16,537.48,1061.16,538.11,1061.16,538.78Z"/><circle class="cls-2" cx="657.28" cy="199.51" r="62.28"/><path class="cls-3" d="M1061.11,536.8a208,208,0,0,0-9.35-19.39c-6.3-10.4-9.45-17.14-15.21-32.76l-4.1-11.2,6.26,5.44c6.79,5.81,15.21,15.8,21.24,24.88-.45-7.55-1.08-15.07-1.94-22.54-10.17-9.63-16.06-14-30.69-23.71C997,437.09,972,423.87,962.13,422.7c-4.55-.45-4.68-.45-7,4.22-5.4,10.62-22.31,33-35.77,47.07-8.36,8.82-12.5,14.13-16.82,21.6-1.76,2.92-3.38,4.77-3.6,4.05-.77-2.43-11.07,14.17-11.07,17.77,0,1-4.64,11.16-10.31,22.67-8.23,16.83-11.6,22.46-17.23,29-3.82,4.32-10.12,11.7-13.9,16.15-4.55,5.45-8.15,8.46-10.39,9.23-2.52.67-3.38,1.53-3,2.74.76,2.39-13,34.15-22.46,52a492.91,492.91,0,0,1-34.28,53.59L767,715.43l-7,2.16a55.11,55.11,0,0,1-13.77,2.2h-6.84l-15-26.19c-8.1-14.39-17.68-29.69-21.15-33.92s-22.13-23-41.53-41.8-35.41-34.6-35.41-35c0-3.15,6.84-13.14,17-24.84,12.91-14.85,32.08-36.8,32.3-36.8,0,0,.14,2.74.14,6.12,0,5.49.31,6.25,3.69,9.31l3.69,3.24L677.5,550.7c-3.15,6-5.54,11.07-5.22,11.3.36,0,3.15-4.46,6.21-10.17,7.06-12.82,7.38-13.28,9.31-12.51,3.6,1.3,6.52,9.9,13.45,39.59,5.45,22.82,9.23,26.82,12.38,13.05.9-4,4.59-25,8.28-46.66s7-40.58,7.55-42.11c.77-2.07,1.76-2.7,3.6-2.39s3.38,2.39,6.39,8.6c3.15,6.7,5,9,9.14,11.7,4.86,3.37,5,3.37,4.32,1a29.62,29.62,0,0,1-.63-5.31c0-1.53-1.44-4.91-3.15-7.61-4.23-6.43-4.68-9.53-3.47-22.45.86-9.67,1.4-11.43,3.56-13.27,3.06-2.48,7.69-2.79,9.54-.54,2.43,2.83-.32,53.63-4.32,84.23-1.4,10.62-5.54,27.13-9.77,39.37-3.46,10.44-4.45,16.6-1.75,11.52.9-1.53,3.82-9.14,6.52-16.83s8.46-22.9,12.6-33.66c4.45-11.7,8.14-23.44,9.22-29.29,5.85-31.76,7.25-38,9.45-39.5,2.39-1.62,12.69-10.31,26.37-22.14,9.54-8.1,17.46-13.77,19.75-13.77.72,0,4.1,5.54,7.25,12.15,5.75,12,6.29,12.6,18.58,24.12,6.93,6.48,14,13.76,15.48,16.15,3.51,5.22,4.45,3.37,2.07-3.78-4.1-12-5.85-14.76-14.09-23.67-5.89-6.21-9.76-11.52-12.06-16.28a173.34,173.34,0,0,0-35.27-49.9c-18.13-18.05-27.31-22.27-38.38-17.69-3.29,1.31-18.36,18.23-75.55,84.28-39.37,45.4-73.65,84.86-76.17,87.78l-4.77,5.13-7.06-6c-8.46-7.38-16.47-11.93-31.54-18.32-14.67-6.07-20-8.81-25.65-13.13s-14.85-6.39-24.3-5.76c-6.61.45-6.93.63-12.06,6.39-9.09,10.12-20.47,24.65-35.59,45.12-7.92,10.89-15.7,21.42-17.23,23.27l-2.92,3.46-7.47-5.53c-4.28-2.93-13.91-8.91-21.74-13.23-16.6-9.23-20.29-11.75-19.52-13.14,1.53-2.38-1.62-.67-4,2.16-10.62,13.14-20.38,28.12-32.44,50A529.59,529.59,0,0,1,344,672.05c-11.39,16.15-30,41.22-30.6,41.22-.22,0-2.7-4.55-5.44-10.08-5.85-11.75-12.38-20.74-25.16-34.74-20.2-22-67.49-62.81-98.76-85.08-7.24-5.18-7.38-5.18-15.7-5.18-7.74.09-8.82.41-12.51,3.33-5.71,4.59-19.75,22.14-38.29,48.19C98.29,656.62,87,669.85,64.77,691.58c-6.8,6.66-13.14,12.69-19.57,18.58,1.3,3.83,2.7,7.7,4.09,11.48C62.74,708.77,80,690.72,89.74,679.07c16.06-19.39,24.16-30.37,44.68-60.65,9.67-14.44,19.35-28.08,21.37-30.46l3.69-4.23,2.75,3.1a34.08,34.08,0,0,1,4.63,9.14c1.08,3.6,2.2,5.31,2.74,4.54,1.85-3.15,2.25,3.69,1.62,29.65-.31,14.94-.22,31.36.23,36.45l.94,9.22.9-18.67c.54-10.3.63-25.69.32-34.15l-.68-15.52,3.83,11.38c4.77,14.31,13.14,46.52,18.85,72.71,6.75,30.46,12.6,49.9,15.12,49.9,2.7,0,.72-21.28-5.45-58-1.75-10.62-3.05-19.53-2.83-19.85s1.44,1.94,2.74,4.77,5.63,13,9.77,22.59c22.68,52,57.28,155.27,73.43,219.17,8.05,31.67,11,50.34,8.37,52-2.07,1.22-10.08-9.45-36.22-47.83-27.13-40-43.87-61.55-62.63-81.07-10.62-10.94-17.78-16.92-20.3-16.92-.85,0-1.62,2.29-2.07,6.16-.85,8.15-5.22,23.58-9.31,33.57-2.92,6.88-8.86,17.5-17.1,30.59a522.41,522.41,0,0,0,97.46,85.18,276.41,276.41,0,0,0,32.57,3.55c8.06.54,14,1.44,16.61,2.61a14.54,14.54,0,0,0,6.3,1.44c5.08-1.44,7.06-12,5.31-28.57-2.79-27.54-12.92-65.87-34.15-129.76-7-20.61-12.38-37.75-12.15-38s2,.09,4.09.63a39.5,39.5,0,0,0,9.9,1.13c5.85,0,6.3-.23,6.3-2.52,0-1.4-2.61-12.06-5.89-23.67-17-60.65-14.54-62.05,18.44-10.53,8.69,13.59,17.69,27,20.07,29.88,6.07,7.24,13.59,19.93,24.75,42.52,15.29,30.5,41.89,76.8,48.1,83.87,2.16,2.52-.14-2.84-7.38-17C361,851.49,340,808.11,340,805.82c0-1.31,12,6.07,15,9.31,2,2.21,15.71,18.81,30.38,37,31.58,39.15,38.51,47.29,39.05,45.67.86-2.7-6.3-14.76-51.34-85.85-30.68-48.37-49.81-79.28-54.13-87.64l-1.84-3.69L334.19,704c9.45-9.13,19.62-19.52,22.59-23.21s5.85-6.62,6.25-6.62c2.07,0,49.41,34.38,69.16,50.22,19.39,15.65,31.54,26.9,37,34.64,12.38,17.23,14.54,19.62,21.6,24.3,9.77,6.39,14.76,13.77,24.07,35.45,7.61,17.91,12,25.65,16.29,29.88,3.15,2.92,10,5.71,12.06,5,.76-.22,3.87-4.27,6.93-8.91s10.21-15.52,16-24.29S577,804.2,577.7,803.88a2,2,0,0,1,2.38.41c1.08.9,1.17-.32.32-5.85-.54-3.91-1.53-7.06-2.16-7.06s-9.45,8.36-19.66,18.44c-20.16,20.07-20.92,20.52-27.36,15.66-4.54-3.51-7.78-9.9-12.24-24.34a146.08,146.08,0,0,0-6-16.38c-3.15-6.07-8.87-11.38-14-12.78-9.86-2.74-19-12.73-34.16-37.25-17.05-27.54-38.1-65.83-38.1-69.2,0-.54,1.93-1.08,4.22-1.08s4.55-.32,4.77-.9c1.08-1.71-1.39-5.31-5.76-8.33-7.78-5.44-11.15-15-13.54-38.42-.85-8.55-1.53-15.84-1.3-16.06.31,0,2.11,2,4,4.77,5,7,39,41.57,47.33,48.18,8.15,6.39,15.62,10,20.3,9.45,3.15-.31,3.78.23,8.46,7.07,2.79,4,6.83,10.71,9.08,14.94,4.05,7.73,4.14,8.36,2.21,16.42-.68,2.56-.45,3,2.25,3.78,5.85,1.53,14.76,1,16-.86,2.79-4.45-19-38.74-52.1-82.16-4.46-5.85-4.86-12.05-1.08-17.23,6.39-8.91,22.68-30.28,30.91-40.72s9.9-11.83,14.44-13.32A29.44,29.44,0,0,0,525,546.7l2.79-2.7,1.75,4.14c.86,2.16,3.38,9.31,5.4,15.93,7.38,23.21,12,28.75,37.57,46,8.23,5.53,17.46,12.32,20.52,15.16l5.4,5,.54,12.47.54,12.5-8.24,23.85c-4.45,13.27-8.46,26.5-8.77,29.52-1,7,1.17,11.83,8.68,19.52,8.87,9.23,10.62,7,4.64-5.71-2.25-4.9-3.47-9-3.47-12.37,0-4.68,4.46-20.66,5.76-20.66.32,0,2.07,3.29,3.92,7.29,4.86,11.07,14.84,25.38,24.2,34.74,6.71,6.84,9,10,11.61,16.06,10.53,25.69,43.6,86.8,57.73,106.64,7,10,19.3,19.66,28.39,22.45,2.52.76,2.61.67,2-3-2.16-13.46-30-68.26-51.2-101.15-5.54-8.55-6-9.45-3.15-7.61,1.71,1.13,14.17,9.23,27.67,18.14S724.47,799,725.46,799c3.37,0,5.22-1.39,7.38-5.53,1.08-2.3,4.36-6.71,7.06-9.77,5-5.62,7.07-9.31,11.61-21.06,2.93-7.46,25.92-45.44,29.61-49,1.44-1.3,2.61-3.15,2.61-4.09,0-1.76,102-169.32,107.44-176.33a106.38,106.38,0,0,0,6.93-12.51c5.31-11.25,16.15-27.54,24-35.77,5-5.36,5.76-5.9,4-2.75-1.17,2.07-7.61,14.36-14.31,27.13s-14.35,27-16.83,31.5c-9.54,17-25.73,52.28-61.73,134.62-9.54,22-9.76,25.74-.76,21.19,4.76-2.52,20-19.34,27.35-30.19,3.69-5.53,6.48-9.31,6.17-8.46s-4.86,11.84-10.08,24.44c-17.46,42.43-19.75,52-13.68,58.13,3.06,3.06,3.6,3.15,13.36,3.15,16.61,0,21.46,2.52,21.46,11.07,0,4.54,1,5.13,3.47,2.16,2.38-2.7,2.83-4.41,4.68-21.92,2.92-27.53,3.69-31.36,8.37-41.21,2.61-5.54,6.93-19,10.93-33.66l6.75-24.38.09,20.06c0,11.07.54,23.76,1.3,28.31l1.22,8.27L909,705.12c-2.61,7.07-5.4,13.59-6.08,14.31-.76,1-.63,2.21.68,4.23,3.78,5.67,8.64,1.13,12-11.25,1.3-4.68,1.53-4.9,2.29-2.38a121.48,121.48,0,0,0,5.54,12c5.22,10.66,15.61,21.51,22.54,23.76,4.9,1.66,11,.54,12.51-2.16,2.25-4.23,1.17-7.47-3.83-12.38-5.62-5.53-5.53-4.32-3.24-29.38,1.76-19.52,3.92-28.43,11.07-45.49,4.23-10,5.45-11.92,8.24-13.13,4.14-1.71,5.31-1.26,12.06,4,6.52,5.08,11.83,5.53,16.69,1.39,7-5.76,9.58-20.92,6.3-35.68-3.24-14.35-7.07-22.27-27.45-57.1-9.22-15.61-10.08-17.9-13.9-32-2.16-8.37-4.86-18.22-6.08-22-1.62-5.09-1.84-7.25-.94-8.91.63-1.17,1.48-2.16,2.07-2.16.4,0,3.46,8.91,6.61,19.75,6.48,22.9,10.94,34.6,14.85,39.73,1.85,2.47,6.3,5.31,15.3,9.54,6.93,3.24,13,6.52,13.45,7.29,1.94,3,.77,6.93-3.46,11.47-2.39,2.52-4.37,5.13-4.37,5.67,0,1.84,5.22,6.39,7.38,6.39,3,0,10.76-6,12.74-9.68,2.69-5.4,2-9.31-3-16.69-9.77-14.53-19.08-24.66-28.22-30.37-2.92-1.84-3-2.29-3-10.21,0-4.68.76-14.54,1.62-22.14a153.26,153.26,0,0,0,1.39-21.69c-.31-7.83-.4-8.05-3.69-9.58-6.38-2.79-15.47-20.07-16.46-31.23-.68-7.29,1-8.14,8.77-4.23,5.76,2.84,21.37,12.47,20.2,12.6a72.68,72.68,0,0,1-7.29-2.74c-6.83-2.7-11.06-3.47-11.06-1.85,0,.54,3.28,7.29,7.28,15s7.92,16.69,8.69,20c.85,3.78,1.39,13.46,1.39,26.14v20.3l4.77,9.54c5.67,11.2,14.76,21.59,30.82,35.27,10.94,9.36,18.5,16.06,24.44,21.82q2.57-25.71,2.56-52.1C1061.16,538.11,1061.16,537.48,1061.11,536.8ZM788.72,398.58c.14,0,8.91,9.76,19.53,21.73s19.66,22.32,19.84,23c.36.86-2.38,1-9.31.54-9.45-.54-17.69-2.83-17.69-4.9,0-.54-2.06-2.39-4.54-4-7.06-4.45-10.44-8.14-11.2-11.6C784.81,420.85,787.87,398.58,788.72,398.58Zm-63.8,91.29c-2.38,1.26-2.38,1.26-.54-1.3,1-1.44,2.92-4.46,4.23-6.75,2.07-3.6,5.22-5.45,5.22-3.15C733.83,480.51,727.44,488.57,724.92,489.87Zm.54-34.73c6.07-9.68,23.76-34,24.3-33.43.13.22-2,5.75-5,12.28-2.79,6.48-6.25,13.86-7.47,16.38a35.76,35.76,0,0,0-2.38,5.08c0,.32,4.54-2.29,10.08-5.76,12.37-7.69,21.14-12.78,19.75-11.29-1,1.12-42.43,28.66-44.14,29.42C718.08,468.9,720.38,463.06,725.46,455.14Zm-42,64.79a16.65,16.65,0,0,0,.63-5.45c0-2.29,2-4.77,9.36-11.92,5.17-5,11.83-12.06,14.62-15.84s6.75-7.6,8.69-8.37c3.37-1.53,5.13-2,5.13-1.3a39.09,39.09,0,0,1-5.67,4.54c-7.16,5.54-19.85,20.74-26.6,31.9C684.56,522,682,524.7,683.48,519.93Zm-459,165.89c-.23,0-4.59-10.12-9.9-22.68s-11.92-28.21-14.76-34.51c-5.71-12.37-4.54-11.83,5,2.3,6.84,10.08,12.06,22.85,16.43,39.91C223.19,678.85,224.72,685.6,224.5,685.82Zm176.1-72.71c-1.08,5.44-9.45,22.14-13.67,27l-2.61,3.11,2.07-4.32c1.08-2.39,4.67-10.85,7.82-18.77C399.84,606,402.45,603.12,400.6,613.11Zm7.38,5.44c-.58,0-6.21-13.81-6.21-15.2,0-.54.45-.54,1.13-.23s2,3.92,3.24,7.83S408.21,618.33,408,618.55Zm50.22.77c-.95-.59-6.39-3.83-12-7.29S431,603.66,425.13,601c-11.93-5.31-11.93-5.31-12.92-9.54-.76-3.06-.67-3.15,2.84-2.38a59.66,59.66,0,0,1,8.32,2.79c8.05,3.51,21.91,13.45,29.43,21.19C456.71,617,459.1,619.86,458.2,619.32ZM594.71,613c-1.94-1.44-10.62-7.06-19.3-12.6S558,588.9,556.1,587.06c-3.15-2.93-7.83-10.17-7.83-12.15,0-.31,2.16-.54,4.91-.54,3.69,0,5.08.45,5.62,1.84,1.4,4.23,10.31,16.52,13.55,19,4.81,3.6,11.42,6.93,15.83,7.92,2.84.54,4.05,1.62,5.22,4.46.9,2.07,2.3,4,3.15,4.45a2.59,2.59,0,0,1,1.62,2.16C598.17,615.27,597.23,615,594.71,613Zm12.82-36.67c-1.3,1.26-2.07,1.17-5.31-1.31-3.69-2.83-14.44-5.75-35.81-9.76a117.37,117.37,0,0,1-16.29-4.36c-6-2.16-7.07-2.93-9.14-7.25-2.92-5.76-3-6.84-.72-6,1,.31,8.64,2.61,17,5.08,14.22,4,33.66,12.06,37.66,15.53.86.76,3.78,1.75,6.53,2.07C607.08,571.13,610,573.92,607.53,576.35ZM626.74,595c.32,0,3.24,3.51,6.71,7.74,6.84,8.46,7.6,11.47,1,3.87C630.3,602,625.75,595,626.74,595ZM665,735.09c-5.44-4.46-23-36.81-26.81-49.27-2.93-9.36-2.61-11.38,5-30.91,3.29-8.59,6.53-17.82,7.29-20.52l1.17-5,1.53,3.91c1.53,3.69,1.39,4.23-2.29,11.79A66,66,0,0,0,644.07,678c.67,10.44,2.83,16.6,12.28,36.13C666.43,735,667.19,736.8,665,735.09Zm8.46-45.72c-1.53,0-7.92-16.46-8.46-21.68-.31-3.24-.22-5,.09-3.92s2.39,7.38,4.77,13.91S673.81,689.37,673.49,689.37Zm82.88,41c-2.56,3.69-4.86,6.61-5.17,6.61s-1.85-1.93-3.47-4.54l-3-4.55,4-.76a44.44,44.44,0,0,0,7.79-2.29c2.07-1,3.91-1.53,4.14-1.31S759,726.81,756.37,730.41Zm192.71-256.6c1.21.85,1.84,2,1.66,2.79-.36.9-1.43.36-3-1.4C944.85,472.14,945.84,471.42,949.08,473.81Zm-2.7,44.68c4.54-13.23,7.69-21.15,8.23-21.15a56.27,56.27,0,0,1-.18,6.7c-.67,11.21-1.21,13.14-5.53,18.9-2.2,2.93-4.9,6.62-5.89,8S943.46,526.86,946.38,518.49Zm-9.85,145.19C933,677.77,929.73,689,929.46,689c-.31-.23-.45-4.36-.45-9.13a43.58,43.58,0,0,1,2.93-16.61c3.6-10.08,10.44-26.14,10.89-25.6C943,637.72,940.22,649.55,936.53,663.68Zm21.68-62.81c5.22-5.35,8.55-8.5,7.61-7-3.38,4.9-17.05,27.67-17.82,29.65a1.78,1.78,0,0,1-2.38,1.3c-3.69-1.44-8.33,4.32-12.78,15.62l-1.53,3.91.45-5.44c.31-3.06,1.08-13.46,1.71-23.31,1-14,1.84-19.44,3.91-25,1.4-3.92,4.77-14.45,7.61-23.35,5-16.16,10.75-30.69,11.83-29.61.31.32-1.67,8.59-4.23,18.36-5.67,20.6-9.13,31.45-10.53,32.84-.54.68-1,3.83-1,7.29,0,6.17,2.93,12.69,6.3,13.77C948.14,610.19,953,606.05,958.21,600.87Zm-813.67,197c-3.28,0-13.27,10.08-22.67,22.68-4.46,6-8.6,10.84-9.14,11-1.62,0,.09-36.81,3.15-67.86,3.47-35.14,3.47-60.42.09-66.59L114,693.42l7.15-14.89C128.12,664,135,647.31,136.4,641.32c.54-2.16.31-2.92-1-2.92-2.39,0-4.46,2.38-20.74,24.07-26.77,35.95-40,49.72-60.66,63.17-.85.58-1.7,1.12-2.56,1.66,1.89,4.86,3.82,9.72,5.85,14.49,9.09-5.89,21-12.78,21.69-12.15.22.23-.77,4.68-2.16,9.9s-3.6,16-4.77,24c-.41,2.61-.86,5.18-1.26,7.52,2.7,5.58,5.58,11.11,8.55,16.56.81-4.91,1.62-10,2.34-15,4.59-31,6.84-41.35,9-40.58.76.22,1.43,2.38,1.66,4.77.31,5.13-1,12.91-7.83,46.43-.72,3.56-1.39,6.89-2,10a512,512,0,0,0,36.26,56.1A250.09,250.09,0,0,1,135,820.49c7.83-12.38,11.83-19.53,11.83-21.51C146.79,798.44,145.8,797.9,144.54,797.9ZM59,744.72a1.93,1.93,0,0,0-.41.09c1.58,3.64,3.15,7.24,4.82,10.84C62,748.68,60.49,744.72,59,744.72Z"/><path class="cls-3" d="M1053,631.11l-5.13,25.24c-.41.36-.81.76-1.26,1.12-4.55,4.14-8.87,9.14-9.77,11.21-2,4.77-1.93,16.38.23,24.52.13.45.27.94.4,1.44-2,6.52-4.18,13-6.48,19.39-5.85-6.12-11.2-10.35-14.62-11.2-8.59-2.16-9.36,12.73-.76,16,2.25.86,2.61,1.53,2.07,4-1.22,4.67-5.22,12.5-16,30.59-11.7,19.89-18.35,32.67-18.35,35.5,0,1.08,3.28,6.62,7.19,12.24-1.8,3.1-3.64,6.21-5.48,9.27l-.05,0c-4.68-6.3-8.46-12.37-8.82-14.53-1.3-6.39.36-20.83,4.46-40.27,3.15-14.53,4.14-21.69,4.23-30.46.13-12.91-.77-14.89-7.61-17.82a19.4,19.4,0,0,1-5.71-3.69c-2.39-2.38-3.06-5.53-1.31-5.53.54,0,5.94,4.68,12,10.44,6.61,6.3,11.6,10.21,12.73,10,2.92-.54,3.55-6.75,2.25-24.21-1.62-23.35-.63-25.92,16-40.27,12.91-11.16,15.3-17,12-30.46-1.62-6.66-4.85-24.52-5-26.73,0-.4,2.21.68,4.9,2.52s4.86,2.93,4.86,2.48a69,69,0,0,0-1.62-6.84c-.85-3.24-1.62-6.71-1.48-7.56,0-1.53,5.53,9.54,6.93,14.08.4,1.22,2.25,2.93,4.23,3.69C1043.79,607.67,1048.79,616.17,1053,631.11Z"/><path class="cls-3" d="M583,811.14a3.36,3.36,0,0,0,1.08,2.49c1.41.87,1.41-.54,0-2.71C583.21,809.51,583,809.51,583,811.14Z"/></svg>