<svg id="Logo1" xmlns="http://www.w3.org/2000/svg" xmlns:xlink="http://www.w3.org/1999/xlink" viewBox="0 0 1077.56 1077.56"><defs><style>.cls-1{fill:url(#Degradado_sin_nombre_8);}.cls-2{fill:url(#Degradado_sin_nombre_10);}.cls-3{fill:#fff;}</style><linearGradient id="Degradado_sin_nombre_8" x1="335.96" y1="767.27" x2="741.59" y2="64.7" gradientUnits="userSpaceOnUse"><stop offset="0" stop-color="#db7700"/><stop offset="1" stop-color="#d80000"/></linearGradient><linearGradient id="Degradado_sin_nombre_10" x1="606.6" y1="194.47" x2="654.97" y2="110.7" gradientUnits="userSpaceOnUse"><stop offset="0" stop-color="#fff"/><stop offset="0.11" stop-color="#fefafa"/><stop offset="0.23" stop-color="#fcecec"/><stop offset="0.36" stop-color="#f9d5d5"/><stop offset="0.5" stop-color="#f4b5b5"/><stop offset="0.64" stop-color="#ed8c8c"/><stop offset="0.79" stop-color="#e65959"/><stop offset="0.93" stop-color="#dd1e1e"/><stop offset="1" stop-color="#d80000"/></linearGradient></defs><path class="cls-1" d="M944.35,416q0,20.49-2,40.45-1.58,15.82-4.34,31.23c-1.15,6.61-2.51,13.14-4,19.6Q930.59,522.36,926,537c-1.57,5.06-3.25,10.09-5,15a398.09,398.09,0,0,1-31.4,67.63c-1.4,2.41-2.83,4.82-4.26,7.2-71.23,116.74-199.75,194.68-346.5,194.68A405,405,0,0,1,236.26,686.09q-12.47-13.89-23.58-29a398.23,398.23,0,0,1-28.15-43.56c-.84-1.47-1.64-2.93-2.45-4.4-2.3-4.23-4.54-8.52-6.63-12.86-2-3.94-3.88-7.89-5.73-11.91v0c-1.29-2.8-2.52-5.59-3.74-8.42-.35-.77-.66-1.57-1-2.34-1.58-3.71-3.08-7.48-4.54-11.25l-1.68-4.4c-1.08-2.94-2.17-5.94-3.18-8.91A404.2,404.2,0,0,1,133.21,416c0-224,181.58-405.57,405.57-405.57,208.9,0,380.9,157.93,403.12,360.89.67,5.8,1.15,11.64,1.5,17.5.6,8.49.91,17,.91,25.64C944.35,415,944.35,415.47,944.35,416Z"/><circle class="cls-2" cx="630.78" cy="152.59" r="48.36"/><path class="cls-3" d="M944.31,414.45a165.78,165.78,0,0,0-7.26-15.05c-4.89-8.07-7.34-13.31-11.81-25.43l-3.18-8.7,4.86,4.23c5.27,4.5,11.8,12.26,16.48,19.31-.35-5.86-.83-11.7-1.5-17.5-7.89-7.47-12.47-10.86-23.82-18.41-23.58-15.86-43-26.13-50.62-27-3.53-.35-3.63-.35-5.41,3.28-4.2,8.24-17.33,25.6-27.78,36.54-6.49,6.85-9.71,11-13.06,16.77-1.36,2.27-2.62,3.7-2.79,3.14-.6-1.89-8.6,11-8.6,13.8,0,.77-3.6,8.66-8,17.6-6.39,13.07-9,17.44-13.38,22.5-3,3.35-7.86,9.08-10.79,12.54-3.53,4.23-6.32,6.57-8.07,7.16-2,.53-2.62,1.19-2.31,2.13.6,1.86-10.09,26.52-17.43,40.35a383.59,383.59,0,0,1-26.62,41.61L716,553.14l-5.41,1.67a42.4,42.4,0,0,1-10.69,1.72h-5.31L683,536.19c-6.29-11.17-13.73-23.05-16.42-26.33S649.34,492,634.29,477.4s-27.5-26.86-27.5-27.21c0-2.44,5.31-10.2,13.17-19.28,10-11.53,24.91-28.58,25.08-28.58,0,0,.11,2.13.11,4.75,0,4.27.24,4.86,2.86,7.23l2.87,2.52-4.4,8.42c-2.45,4.64-4.3,8.59-4.06,8.77.28,0,2.45-3.46,4.83-7.9,5.48-9.95,5.72-10.3,7.23-9.71,2.79,1,5.06,7.69,10.44,30.74,4.23,17.71,7.16,20.82,9.61,10.13.7-3.11,3.56-19.39,6.43-36.22s5.44-31.51,5.86-32.7c.6-1.61,1.37-2.1,2.8-1.85s2.62,1.85,5,6.67c2.44,5.21,3.88,7,7.09,9.08,3.77,2.62,3.88,2.62,3.35.77a23.77,23.77,0,0,1-.49-4.12c0-1.19-1.11-3.81-2.44-5.9-3.28-5-3.63-7.41-2.69-17.44.66-7.51,1.08-8.87,2.76-10.3,2.37-1.92,6-2.17,7.41-.42,1.88,2.2-.25,41.64-3.36,65.39a180.28,180.28,0,0,1-7.58,30.57c-2.69,8.1-3.46,12.89-1.36,8.94a140,140,0,0,0,5.06-13.06c2.2-6.08,6.57-17.78,9.79-26.13,3.45-9.08,6.32-18.2,7.16-22.74,4.54-24.67,5.62-29.49,7.33-30.67s9.85-8,20.47-17.19c7.41-6.29,13.56-10.69,15.34-10.69.56,0,3.18,4.3,5.62,9.43,4.47,9.29,4.89,9.78,14.43,18.73,5.38,5,10.86,10.69,12,12.54,2.72,4,3.45,2.62,1.6-2.94-3.18-9.29-4.54-11.46-10.93-18.37-4.58-4.82-7.58-8.94-9.36-12.65a135,135,0,0,0-27.39-38.74c-14.08-14-21.2-17.29-29.8-13.73-2.55,1-14.25,14.15-58.65,65.43-30.56,35.25-57.18,65.89-59.14,68.16l-3.7,4-5.49-4.65c-6.56-5.73-12.78-9.26-24.48-14.22-11.39-4.71-15.51-6.84-19.92-10.2s-11.52-5-18.86-4.47c-5.13.35-5.38.49-9.36,5-7.06,7.86-15.9,19.15-27.63,35C485.23,456,479.19,464.2,478,465.63l-2.27,2.69-5.8-4.3c-3.32-2.27-10.8-6.91-16.87-10.27-12.89-7.16-15.76-9.11-15.17-10.2,1.19-1.85-1.25-.52-3.1,1.68-8.25,10.2-15.83,21.83-25.19,38.85a412.17,412.17,0,0,1-22.08,35.38c-8.84,12.54-23.26,32-23.75,32a68.21,68.21,0,0,1-4.23-7.82c-4.54-9.12-9.61-16.11-19.53-27-15.68-17.12-52.4-48.77-76.67-66.06-5.63-4-5.73-4-12.19-4-6,.07-6.85.32-9.72,2.59-4.43,3.56-15.33,17.18-29.72,37.41-14.92,20.89-23.69,31.16-40.94,48-5.28,5.17-10.2,9.85-15.2,14.43,1,3,2.1,6,3.18,8.91,10.44-10,23.86-24,31.4-33.05,12.47-15,18.76-23.58,34.69-47.09,7.51-11.21,15-21.8,16.59-23.65l2.87-3.28,2.13,2.41a26.41,26.41,0,0,1,3.6,7.09c.84,2.8,1.71,4.12,2.13,3.53,1.43-2.45,1.74,2.86,1.26,23-.25,11.6-.18,24.35.17,28.29l.73,7.17.7-14.5c.42-8,.49-19.95.25-26.51l-.53-12.06,3,8.84c3.71,11.11,10.2,36.12,14.64,56.45,5.24,23.65,9.78,38.74,11.74,38.74s.56-16.52-4.23-45c-1.36-8.24-2.38-15.16-2.2-15.41s1.12,1.51,2.13,3.71,4.37,10.09,7.58,17.53c17.61,40.35,44.47,120.56,57,170.16,6.25,24.59,8.52,39.09,6.5,40.35-1.61.94-7.83-7.34-28.12-37.14-21.07-31.09-34.06-47.78-48.63-62.94-8.24-8.49-13.8-13.14-15.75-13.14-.67,0-1.26,1.78-1.61,4.79-.66,6.32-4,18.3-7.23,26.06-2.27,5.34-6.88,13.58-13.28,23.75a405.92,405.92,0,0,0,75.67,66.13A214.17,214.17,0,0,0,337.22,755c6.25.42,10.86,1.11,12.89,2a11.27,11.27,0,0,0,4.89,1.12c3.95-1.12,5.48-9.29,4.12-22.18-2.16-21.38-10-51.14-26.51-100.75-5.42-16-9.61-29.31-9.43-29.48a8.45,8.45,0,0,1,3.18.49,31,31,0,0,0,7.68.87c4.54,0,4.89-.17,4.89-2,0-1.09-2-9.37-4.58-18.38-13.2-47.09-11.28-48.17,14.33-8.17,6.74,10.55,13.73,21,15.58,23.19,4.71,5.63,10.55,15.48,19.21,33,11.88,23.69,32.52,59.63,37.34,65.12,1.68,2-.1-2.2-5.73-13.21-14.32-27.91-30.67-61.58-30.67-63.36,0-1,9.33,4.71,11.64,7.23,1.57,1.71,12.19,14.6,23.57,28.75C444.15,689.69,449.53,696,450,694.75c.66-2.09-4.89-11.45-39.86-66.65-23.83-37.55-38.67-61.55-42-68.05l-1.43-2.86,13.31-12.89c7.34-7.09,15.23-15.16,17.54-18s4.54-5.13,4.85-5.13c1.61,0,38.36,26.69,53.69,39,15.06,12.16,24.49,20.89,28.72,26.9,9.61,13.38,11.28,15.23,16.77,18.86,7.58,5,11.45,10.69,18.69,27.53,5.9,13.9,9.29,19.91,12.64,23.2,2.45,2.27,7.76,4.43,9.36,3.87.6-.17,3-3.31,5.38-6.91s7.93-12.05,12.4-18.87,8.49-12.64,9-12.89a1.59,1.59,0,0,1,1.85.32c.84.7.91-.25.24-4.54-.42-3-1.19-5.49-1.67-5.49s-7.34,6.5-15.27,14.33c-15.65,15.58-16.24,15.92-21.24,12.15-3.53-2.72-6-7.68-9.5-18.9A110.87,110.87,0,0,0,518.76,607c-2.44-4.72-6.88-8.84-10.86-9.92-7.65-2.13-14.74-9.89-26.51-28.93C468.15,546.74,451.8,517,451.8,514.4c0-.42,1.5-.84,3.28-.84s3.53-.25,3.7-.7c.84-1.33-1.08-4.12-4.47-6.46-6-4.23-8.66-11.64-10.51-29.84-.67-6.63-1.19-12.29-1-12.47a15.7,15.7,0,0,1,3.1,3.71c3.88,5.41,30.26,32.27,36.75,37.41,6.33,5,12.12,7.75,15.76,7.34,2.44-.25,2.93.17,6.57,5.48,2.16,3.11,5.31,8.31,7,11.6,3.15,6,3.22,6.49,1.71,12.75-.52,2-.35,2.34,1.75,2.93,4.54,1.19,11.46.77,12.4-.66,2.17-3.46-14.74-30.08-40.45-63.79-3.46-4.54-3.77-9.36-.84-13.38,5-6.91,17.61-23.51,24-31.61s7.68-9.19,11.21-10.34a23,23,0,0,0,6.26-3.39l2.16-2.1,1.36,3.22c.67,1.67,2.62,7.23,4.2,12.36,5.72,18,9.29,22.33,29.16,35.74a180.05,180.05,0,0,1,15.93,11.77l4.2,3.88.41,9.68.42,9.71-6.39,18.51c-3.46,10.31-6.57,20.58-6.81,22.92-.77,5.41.91,9.18,6.74,15.16,6.88,7.16,8.25,5.41,3.6-4.44-1.75-3.81-2.69-7-2.69-9.61,0-3.63,3.46-16,4.47-16,.25,0,1.61,2.55,3,5.66,3.77,8.59,11.53,19.7,18.79,27,5.21,5.31,7,7.75,9,12.47,8.17,20,33.85,67.38,44.82,82.79,5.44,7.75,15,15.26,22,17.43,2,.59,2,.52,1.53-2.34-1.67-10.45-23.26-53-39.75-78.53-4.3-6.64-4.64-7.33-2.44-5.9,1.32.87,11,7.16,21.48,14.08S683,618,683.72,618c2.62,0,4-1.09,5.72-4.3a43,43,0,0,1,5.49-7.58c3.88-4.37,5.48-7.23,9-16.35,2.27-5.8,20.12-35.28,23-38.08a6,6,0,0,0,2-3.17c0-1.37,79.2-131.46,83.42-136.91a82.77,82.77,0,0,0,5.38-9.71c4.12-8.73,12.54-21.37,18.62-27.77,3.88-4.15,4.47-4.57,3.11-2.13-.91,1.61-5.9,11.14-11.11,21.07s-11.14,21-13.06,24.45c-7.41,13.2-20,40.59-47.93,104.52-7.41,17.11-7.58,20-.6,16.45,3.71-2,15.51-15,21.24-23.44,2.87-4.3,5-7.23,4.79-6.57s-3.77,9.19-7.83,19c-13.55,32.94-15.33,40.42-10.61,45.13,2.37,2.38,2.79,2.45,10.37,2.45,12.89,0,16.66,2,16.66,8.59,0,3.53.77,4,2.69,1.68,1.85-2.1,2.2-3.42,3.64-17,2.27-21.38,2.86-24.35,6.49-32,2-4.3,5.38-14.74,8.49-26.13L828,491.24l.07,15.58c0,8.59.42,18.44,1,22l1,6.43-3.81,9.92c-2,5.48-4.19,10.55-4.72,11.11-.59.76-.48,1.71.53,3.28,2.93,4.4,6.71.87,9.33-8.73,1-3.64,1.18-3.81,1.78-1.86a94.44,94.44,0,0,0,4.29,9.33c4.06,8.28,12.13,16.7,17.5,18.45,3.81,1.29,8.53.42,9.72-1.68,1.74-3.28.9-5.8-3-9.61-4.37-4.29-4.3-3.35-2.52-22.81,1.36-15.16,3-22.08,8.59-35.31,3.29-7.76,4.23-9.26,6.4-10.21,3.21-1.32,4.12-1,9.36,3.15,5.06,3.95,9.19,4.3,13,1.08,5.41-4.47,7.44-16.24,4.89-27.7-2.51-11.14-5.48-17.29-21.31-44.33-7.16-12.12-7.82-13.9-10.79-24.84-1.68-6.49-3.78-14.14-4.72-17.11-1.26-4-1.43-5.63-.73-6.92.49-.91,1.15-1.68,1.6-1.68s2.69,6.92,5.14,15.34c5,17.78,8.49,26.86,11.53,30.84,1.43,1.93,4.89,4.13,11.87,7.41,5.38,2.52,10.1,5.07,10.45,5.66,1.5,2.34.59,5.38-2.69,8.91-1.85,1.95-3.39,4-3.39,4.4,0,1.43,4.05,5,5.73,5,2.31,0,8.35-4.65,9.89-7.51,2.09-4.19,1.57-7.23-2.31-13-7.58-11.29-14.81-19.14-21.9-23.58-2.27-1.43-2.34-1.78-2.34-7.93,0-3.63.59-11.28,1.25-17.19a120.28,120.28,0,0,0,1.09-16.84c-.25-6.07-.32-6.25-2.87-7.44-5-2.16-12-15.58-12.78-24.24-.53-5.66.77-6.32,6.81-3.28,4.47,2.2,16.59,9.67,15.68,9.78a56.09,56.09,0,0,1-5.65-2.13c-5.31-2.1-8.6-2.69-8.6-1.43,0,.41,2.55,5.65,5.66,11.63s6.15,13,6.74,15.51c.67,2.93,1.09,10.44,1.09,20.29v15.76l3.7,7.4c4.4,8.7,11.46,16.77,23.93,27.39,8.49,7.27,14.35,12.47,19,16.94q2-20,2-40.45C944.35,415.47,944.35,415,944.31,414.45ZM732.83,307.14c.11,0,6.92,7.58,15.16,16.87s15.27,17.33,15.41,17.85-1.86.77-7.23.42c-7.34-.42-13.73-2.2-13.73-3.8,0-.42-1.61-1.86-3.53-3.11-5.49-3.46-8.11-6.33-8.7-9C729.79,324.43,732.17,307.14,732.83,307.14ZM683.3,378c-1.86,1-1.86,1-.42-1,.77-1.12,2.27-3.46,3.28-5.24,1.61-2.8,4.05-4.23,4.05-2.45C690.21,370.75,685.25,377,683.3,378Zm.42-27c4.71-7.51,18.44-26.37,18.86-25.95a76.74,76.74,0,0,1-3.88,9.53c-2.16,5-4.85,10.76-5.8,12.72a27.36,27.36,0,0,0-1.85,3.95c0,.24,3.53-1.79,7.83-4.47,9.6-6,16.41-9.93,15.33-8.77-.77.87-32.94,22.25-34.27,22.84C678,361.74,679.77,357.2,683.72,351.05Zm-32.6,50.3a12.77,12.77,0,0,0,.49-4.22c0-1.78,1.54-3.7,7.27-9.26a127.16,127.16,0,0,0,11.35-12.3c2.27-3,5.24-5.9,6.74-6.49,2.62-1.19,4-1.54,4-1a29.05,29.05,0,0,1-4.41,3.53c-5.55,4.3-15.4,16.11-20.64,24.77C652,402.93,649.94,405.06,651.12,401.35ZM294.78,530.15c-.18,0-3.57-7.86-7.69-17.6s-9.26-21.91-11.46-26.8c-4.43-9.6-3.53-9.19,3.88,1.78,5.31,7.83,9.36,17.75,12.75,31C293.76,524.74,295,530,294.78,530.15ZM431.5,473.7c-.84,4.23-7.33,17.19-10.62,21l-2,2.41,1.6-3.35c.84-1.85,3.64-8.42,6.08-14.57C430.91,468.15,432.93,466,431.5,473.7Zm5.73,4.23c-.45,0-4.82-10.73-4.82-11.81,0-.42.35-.42.87-.17s1.58,3,2.52,6.07S437.41,477.75,437.23,477.93Zm39,.59c-.74-.45-5-3-9.33-5.66s-11.81-6.5-16.35-8.59c-9.26-4.12-9.26-4.12-10-7.41-.59-2.37-.52-2.44,2.21-1.85a47.56,47.56,0,0,1,6.46,2.17c6.25,2.72,17,10.44,22.84,16.45C475.06,476.74,476.91,478.94,476.22,478.52Zm106-4.89c-1.5-1.12-8.24-5.48-15-9.78s-13.49-8.94-15-10.38c-2.45-2.27-6.08-7.89-6.08-9.43,0-.24,1.68-.42,3.81-.42,2.86,0,3.95.35,4.36,1.44,1.09,3.28,8,12.82,10.52,14.74,3.74,2.79,8.87,5.38,12.3,6.15,2.2.41,3.14,1.25,4.05,3.45a8.46,8.46,0,0,0,2.44,3.46,2,2,0,0,1,1.26,1.68C584.89,475.38,584.16,475.13,582.2,473.63Zm10-28.47c-1,1-1.61.91-4.13-1-2.86-2.2-11.21-4.47-27.8-7.58a91.5,91.5,0,0,1-12.65-3.39c-4.64-1.68-5.48-2.27-7.09-5.63-2.27-4.47-2.34-5.31-.56-4.64.74.24,6.71,2,13.21,3.95,11,3.1,26.13,9.36,29.24,12.05a11.83,11.83,0,0,0,5.06,1.6C591.81,441.11,594.08,443.27,592.16,445.16Zm14.91,14.46c.25,0,2.52,2.73,5.21,6,5.31,6.57,5.9,8.91.77,3C609.83,465,606.3,459.62,607.07,459.62ZM636.8,568.4c-4.23-3.46-17.85-28.57-20.82-38.25-2.27-7.26-2-8.84,3.88-24,2.55-6.67,5.06-13.83,5.66-15.93l.91-3.87,1.18,3c1.19,2.87,1.09,3.29-1.78,9.16a51.19,51.19,0,0,0-5.31,25.53c.53,8.11,2.2,12.89,9.54,28C637.88,568.3,638.48,569.73,636.8,568.4Zm6.57-35.49c-1.19,0-6.15-12.78-6.57-16.84-.24-2.51-.17-3.87.07-3s1.85,5.73,3.7,10.8S643.61,532.91,643.37,532.91Zm64.34,31.86c-2,2.86-3.77,5.13-4,5.13s-1.44-1.5-2.69-3.52l-2.31-3.53,3.15-.6a33.87,33.87,0,0,0,6-1.78c1.61-.77,3-1.19,3.21-1S709.74,562,707.71,564.77ZM857.33,365.55a2.47,2.47,0,0,1,1.29,2.16c-.28.7-1.12.28-2.37-1.08C854.05,364.26,854.81,363.7,857.33,365.55Zm-2.1,34.69c3.53-10.27,6-16.42,6.4-16.42a46,46,0,0,1-.14,5.2c-.53,8.7-1,10.2-4.3,14.68-1.71,2.27-3.81,5.13-4.58,6.21S853,406.73,855.23,400.24ZM847.58,513c-2.76,10.94-5.27,19.64-5.48,19.64-.25-.18-.35-3.39-.35-7.09A33.68,33.68,0,0,1,844,512.62c2.8-7.83,8.1-20.3,8.45-19.88C852.61,492.81,850.45,502,847.58,513Zm16.84-48.76c4.05-4.16,6.64-6.6,5.9-5.42-2.62,3.81-13.23,21.49-13.83,23a1.39,1.39,0,0,1-1.85,1c-2.86-1.12-6.46,3.35-9.92,12.12l-1.19,3,.35-4.23c.25-2.37.84-10.44,1.33-18.09.77-10.9,1.43-15.09,3-19.39,1.08-3,3.7-11.21,5.9-18.13,3.88-12.54,8.35-23.83,9.19-23,.24.25-1.29,6.68-3.29,14.26-4.4,16-7.09,24.41-8.17,25.5-.42.52-.77,3-.77,5.66,0,4.78,2.27,9.85,4.89,10.68C856.6,471.43,860.37,468.22,864.42,464.2Zm-631.72,153c-2.55,0-10.3,7.82-17.61,17.6-3.45,4.65-6.67,8.42-7.09,8.53-1.25,0,.07-28.58,2.45-52.68,2.69-27.28,2.69-46.92.07-51.7l-1.5-2.87,5.55-11.56c5.38-11.28,10.69-24.24,11.81-28.89.42-1.67.24-2.27-.77-2.27-1.85,0-3.46,1.85-16.1,18.69-20.79,27.91-31.09,38.6-47.09,49.05-.67.45-1.33.87-2,1.29,1.46,3.77,3,7.54,4.54,11.25,7.05-4.58,16.28-9.92,16.83-9.43.18.17-.59,3.63-1.67,7.68s-2.8,12.44-3.71,18.62c-.31,2-.66,4-1,5.83,2.09,4.34,4.33,8.63,6.63,12.86.63-3.81,1.26-7.79,1.82-11.63,3.56-24.11,5.31-32.11,7-31.51.59.17,1.11,1.85,1.29,3.7.24,4-.77,10-6.08,36-.56,2.76-1.08,5.34-1.57,7.79a398.23,398.23,0,0,0,28.15,43.56,194.25,194.25,0,0,1,12.58-22.43c6.08-9.6,9.19-15.16,9.19-16.69C234.45,617.59,233.68,617.17,232.7,617.17Zm-66.41-41.29a1.38,1.38,0,0,0-.31.07c1.22,2.83,2.45,5.62,3.74,8.42C168.6,579,167.45,575.88,166.29,575.88Z"/><path class="cls-3" d="M938,487.67l-4,19.6c-.31.28-.63.59-1,.87-3.52,3.22-6.88,7.09-7.58,8.7-1.57,3.7-1.5,12.72.18,19,.1.35.21.73.31,1.12-1.57,5.06-3.25,10.09-5,15-4.54-4.75-8.7-8-11.35-8.69-6.67-1.68-7.27,9.88-.59,12.4,1.74.66,2,1.18,1.6,3.11-.94,3.63-4.05,9.71-12.4,23.75C889.12,598.06,884,608,884,610.18c0,.84,2.55,5.14,5.59,9.5-1.4,2.41-2.83,4.82-4.26,7.2l0,0c-3.63-4.89-6.57-9.6-6.85-11.28-1-5,.28-16.17,3.46-31.26,2.45-11.29,3.22-16.84,3.29-23.65.1-10-.6-11.57-5.91-13.84A15,15,0,0,1,874.8,544c-1.86-1.85-2.38-4.3-1-4.3.42,0,4.61,3.64,9.33,8.11,5.14,4.89,9,7.93,9.89,7.75,2.27-.42,2.76-5.24,1.74-18.79-1.25-18.13-.49-20.12,12.4-31.27,10-8.66,11.88-13.2,9.33-23.65-1.26-5.17-3.77-19-3.88-20.75,0-.31,1.72.53,3.81,2s3.77,2.27,3.77,1.92-.56-2.76-1.25-5.31a28.22,28.22,0,0,1-1.16-5.87c0-1.18,4.3,7.41,5.38,10.94a6.07,6.07,0,0,0,3.29,2.86C930.86,469.47,934.74,476.08,938,487.67Z"/><path class="cls-3" d="M573.11,627.45a2.61,2.61,0,0,0,.84,1.93c1.1.68,1.1-.42,0-2.1C573.28,626.18,573.11,626.18,573.11,627.45Z"/><path d="M141.18,924.48c-1.94.18-4.91.26-8.88.26a202.2,202.2,0,0,1-38.89-3.81q-19.47-3.79-28.61-6.34L95.63,864q6.34,3,20.62,8.69a202.23,202.23,0,0,0,30.14,9.19q1.4-13.95,1.77-20.23t.51-9.32c.51.94,1.35,2.71,2.54,5.33s3,6.64,5.33,12.05,4.35,10.18,6,14.32h1.27a321.44,321.44,0,0,0,56.84-4.62q25.63-4.63,36.42-7.67-10.92,7.35-34.58,21.23a315.65,315.65,0,0,1-48.53,23.27q2.93,8.75,5,17.18t3.3,16.3a107.55,107.55,0,0,1,1.33,14.33,120.77,120.77,0,0,1-4.75,32,240.18,240.18,0,0,1-11.11,31.83q-6.34,14.58-11,23.58T149.94,1064l-58.62-29.3q1.65-1.64,5.46-6t10.08-13.12a196.65,196.65,0,0,0,13.07-21.37,168.18,168.18,0,0,0,11.61-27.32Q137,950.61,141.18,924.48Z"/><path d="M314.22,951.24l79.37-16.61Q393,939.19,391.5,949t-2.79,19.84a124.19,124.19,0,0,0-1.33,14.08q0-.37-12.55-1.9t-25.62-2.86l-38.42-3.86a166.68,166.68,0,0,1-18.64,48q26.88-12,42.23-13.69a239.09,239.09,0,0,1,27-1.27q13.56,0,23.71.57t17.5,1.27l10,1-32.46,55.29a57.36,57.36,0,0,0-6.27-5.71,78.55,78.55,0,0,0-14.39-8.75,82.46,82.46,0,0,0-22.45-7.1,140.74,140.74,0,0,0-15.79-2.22q-7.29-.57-16.67-.57-10.53,0-27,1.52a119,119,0,0,1-14.64,14.27,105,105,0,0,1-9.58,7q.51-1.79,1.59-7.11t1.84-10.77q-7.62,1.26-11.67,2.28c-2.71.68-4.61,1.18-5.71,1.52q-.37,0,18.39-10.65a323.11,323.11,0,0,0,4.95-55.79q0-4.58-.51-13.7-7.35-.63-13.25-1.2t-8.75-.83c-1.9-.17-3.24-.29-4-.38l25.49-5.2q-.51-3.79-2-11.92-2.16-10.26-11.16-33c-2.79-.43-5.05-.76-6.78-1s-3-.42-3.68-.5a13.07,13.07,0,0,1-1.58-.26,92.39,92.39,0,0,0,10.4-2.15q-3.81-8.88-7.23-15.79t-4.95-9.7l68.6-28q1,3.93,3,13.56t3.94,22.83q6.21-1.9,14.83-5.45,16.86-6.6,27.71-17.88t14.64-17.5l43,43.36q-8.74,4.83-28.22,12.87a169.22,169.22,0,0,1-39.75,11.1A148.52,148.52,0,0,1,323,924c-4.15,0-7.23-.09-9.26-.26q.77,9.27.76,18.77C314.47,946.46,314.38,949.38,314.22,951.24Z"/><path d="M488.44,867.42a228.29,228.29,0,0,1,34.43,6A125.27,125.27,0,0,1,553,885.3a64,64,0,0,1,22.32,20.48q8.49,12.75,8.49,30.37,0,28-49.32,51Q566,995.88,579.1,1006q16.23,12.81,26.06,25.86T618.28,1051l-62,16.11c-.25-1.1-.89-3.13-1.9-6.09a114.2,114.2,0,0,0-6.09-13.32,201,201,0,0,0-11.79-19.65,150.76,150.76,0,0,0-28-30.56q-19.53,6.35-36.89,10.65-7.74,13.07-16.93,25.68t-15.16,19.91q-6,7.29-8.49,10.21,1.14-5.46,3.42-18.45t4.19-30.37c-4.57.76-7.55,1.24-8.94,1.46s-2.47.4-3.24.57q.13,0,12.43-4.95,1.26-15.47,1.27-29.29,0-19.14-2.79-32.72a183.76,183.76,0,0,0-11-34.17q-7.92-18.94-12.49-28.21l41.34-15.72q-6.35-2.67-10.53-4.12c-2.79-1-4.73-1.63-5.83-2q1.65-.12,6-.32c2.92-.12,6.53-.19,10.85-.19,3.21,0,5.95,0,8.24.07s4.82.1,7.61.19l15.59-6Q487.3,859.82,488.44,867.42Zm1,116.28c-2-1-3.5-1.77-4.43-2.28-.43,1-1.61,3.68-3.55,8A65.05,65.05,0,0,0,489.45,983.7Zm7.11-5.45q24.46-20.93,24.85-42.1,0-24.35-29.8-44.63,1.14,10.26,1.71,19.27t.57,17.88q0,22.07-3.68,37.15-1,4.32-3,10.65C492.33,977.4,495.45,978,496.56,978.25Z"/><path d="M694.11,867.42a228.29,228.29,0,0,1,34.43,6,125.27,125.27,0,0,1,30.11,11.92A63.92,63.92,0,0,1,781,905.78q8.49,12.75,8.5,30.37,0,28-49.33,51,31.58,8.76,44.63,18.9,16.23,12.81,26.06,25.86T824,1051l-62,16.11c-.25-1.1-.89-3.13-1.9-6.09a114.2,114.2,0,0,0-6.09-13.32,201,201,0,0,0-11.79-19.65,150.76,150.76,0,0,0-28-30.56q-19.51,6.35-36.89,10.65-7.74,13.07-16.93,25.68t-15.15,19.91q-6,7.29-8.5,10.21,1.14-5.46,3.42-18.45t4.19-30.37c-4.57.76-7.55,1.24-8.94,1.46s-2.47.4-3.24.57q.14,0,12.43-4.95,1.26-15.47,1.27-29.29,0-19.14-2.79-32.72a183.76,183.76,0,0,0-11-34.17q-7.92-18.94-12.49-28.21l41.34-15.72q-6.35-2.67-10.53-4.12c-2.79-1-4.73-1.63-5.83-2q1.65-.12,6-.32c2.92-.12,6.53-.19,10.85-.19q4.82,0,8.24.07t7.61.19l15.59-6Q693,859.82,694.11,867.42Zm1,116.28q-3-1.51-4.43-2.28c-.43,1-1.61,3.68-3.55,8A65.05,65.05,0,0,0,695.12,983.7Zm7.11-5.45q24.46-20.93,24.85-42.1,0-24.35-29.8-44.63,1.14,10.26,1.71,19.27t.57,17.88q0,22.07-3.67,37.15-1,4.32-3,10.65Q700.58,977.87,702.23,978.25Z"/><path d="M904,1008.17c0,4.74,0,8.69-.07,11.86s-.1,6.66-.19,10.46q0,8.49.51,19.59t.76,15.15l-63.15-12.93q.51-4.69,2.41-15.85t5.2-25q-9-1-16.42-2.41t-10.33-2L838,956.69q3,1.27,11,4.19t17.25,5.45a130.83,130.83,0,0,1,8.87-13.82q13.07-16.74,49.58-42.23-6.09-5.07-11.35-9T906,896l67.08-34.74q2.16,2.92,6.85,9.76t11.73,19.66a241.27,241.27,0,0,1,13.12,28.4,112.35,112.35,0,0,1,7.48,29.67c.34,3.72.51,6.56.51,8.5q0,19.9-6.78,43a361.87,361.87,0,0,1-13.57,39q-6.78,15.91-10.08,22.5c.17,0,.25-3,.25-8.87q0-10.9-.82-24.92a295.23,295.23,0,0,0-3.3-29.42,187.61,187.61,0,0,0-6.53-28Q963.56,977,953,983.89a235.08,235.08,0,0,1-23.21,13.31A208.14,208.14,0,0,1,904,1008.17Zm63.4-50a77.25,77.25,0,0,0-5.84-10.9q-6.46-10.77-22.57-24.85-17.25,29.28-25.1,48Q936.68,967.6,967.37,958.21Z"/></svg>